<svg width="260" height="61" viewBox="0 0 260 61" fill="none" xmlns="http://www.w3.org/2000/svg">
<path d="M129.707 15.7065C119.6 15.7065 112.313 22.298 112.313 32.1854C112.313 42.0727 120.516 48.6642 130.623 48.6642C136.729 48.6642 142.112 46.2473 145.444 42.1734L138.441 38.1269C136.592 40.1501 133.781 41.3311 130.623 41.3311C126.237 41.3311 122.511 39.0424 121.129 35.3804H146.781C146.982 34.3551 147.101 33.2931 147.101 32.1762C147.101 22.298 139.814 15.7065 129.707 15.7065ZM121.047 28.9811C122.191 25.3283 125.322 23.0304 129.698 23.0304C134.083 23.0304 137.214 25.3283 138.349 28.9811H121.047ZM228.287 15.7065C218.18 15.7065 210.893 22.298 210.893 32.1854C210.893 42.0727 219.096 48.6642 229.203 48.6642C235.309 48.6642 240.692 46.2473 244.025 42.1734L237.021 38.1269C235.172 40.1501 232.361 41.3311 229.203 41.3311C224.818 41.3311 221.092 39.0424 219.709 35.3804H245.361C245.563 34.3551 245.682 33.2931 245.682 32.1762C245.682 22.298 238.394 15.7065 228.287 15.7065ZM219.636 28.9811C220.78 25.3283 223.911 23.0304 228.287 23.0304C232.673 23.0304 235.804 25.3283 236.939 28.9811H219.636ZM183.904 32.1854C183.904 37.6783 187.493 41.3403 193.059 41.3403C196.831 41.3403 199.66 39.6283 201.116 36.8361L208.147 40.8917C205.235 45.7438 199.779 48.6642 193.059 48.6642C182.943 48.6642 175.665 42.0727 175.665 32.1854C175.665 22.298 182.952 15.7065 193.059 15.7065C199.779 15.7065 205.226 18.6269 208.147 23.479L201.116 27.5346C199.66 24.7424 196.831 23.0304 193.059 23.0304C187.502 23.0304 183.904 26.6924 183.904 32.1854ZM259.414 5.63606V47.7487H251.175V5.63606H259.414ZM34.4134 1.05859L68.2409 59.6501H0.585938L34.4134 1.05859ZM118.987 5.63606L93.6183 49.5797L68.25 5.63606H77.762L93.6183 33.1008L109.475 5.63606H118.987ZM172.918 16.622V25.4931C172.003 25.2276 171.032 25.0445 169.989 25.0445C164.67 25.0445 160.834 28.7065 160.834 34.1994V47.7487H152.594V16.622H160.834V25.0445C160.834 20.3938 166.244 16.622 172.918 16.622Z" fill="#8F9DBE"/>
</svg>
