<svg width="260" height="55" viewBox="0 0 260 55" fill="none" xmlns="http://www.w3.org/2000/svg">
<g clip-path="url(#clip0_1008_12756)">
<path d="M25.8924 51.4834C11.1238 51.4834 0 40.2944 0 26.4807C0 12.621 10.5557 1.33984 25.8924 1.33984C34.034 1.33984 39.6667 3.7342 44.069 9.21364L36.9687 14.8772C33.9866 11.8382 30.3891 10.3187 25.8924 10.3187C15.9046 10.3187 10.4137 17.64 10.4137 26.4807C10.4137 35.3215 16.4253 42.5045 25.8924 42.5045C30.3417 42.5045 34.1287 40.9851 37.1108 37.9461L44.1163 43.8399C39.9036 49.089 34.1287 51.4834 25.8924 51.4834Z" fill="#8F9DBE"/>
<path d="M74.6928 14.6907H84.2544V50.6062H74.6928V45.357C72.7047 49.0868 69.3911 51.5731 63.0484 51.5731C52.9187 51.5731 44.8242 43.1469 44.8242 32.7867C44.8242 22.4263 52.9187 14 63.0484 14C69.344 14 72.7047 16.4865 74.6928 20.2162V14.6907ZM74.9768 32.7867C74.9768 27.1691 70.9532 22.5184 64.6105 22.5184C58.5041 22.5184 54.5279 27.215 54.5279 32.7867C54.5279 38.2199 58.5041 43.0548 64.6105 43.0548C70.9061 43.0548 74.9768 38.3581 74.9768 32.7867Z" fill="#8F9DBE"/>
<path d="M91.0264 0.1875H100.588V50.5614H91.0264V0.1875Z" fill="#8F9DBE"/>
<path d="M104.849 45.8202C104.849 42.8733 107.31 40.3867 110.671 40.3867C114.032 40.3867 116.399 42.8733 116.399 45.8202C116.399 48.8592 113.984 51.3455 110.671 51.3455C107.358 51.3455 104.849 48.8592 104.849 45.8202Z" fill="#8F9DBE"/>
<path d="M152.991 44.8085C149.441 48.9524 144.045 51.577 137.654 51.577C126.246 51.577 117.868 43.1508 117.868 32.7906C117.868 22.4302 126.246 14.0039 137.654 14.0039C143.808 14.0039 149.157 16.4904 152.707 20.4042L145.323 26.3441C143.476 24.1339 141.062 22.4763 137.654 22.4763C131.548 22.4763 127.572 27.173 127.572 32.7445C127.572 38.3159 131.548 43.0126 137.654 43.0126C141.346 43.0126 143.902 41.1709 145.796 38.6843L152.991 44.8085Z" fill="#8F9DBE"/>
<path d="M153.792 32.7867C153.792 22.4263 162.17 14 173.578 14C184.986 14 193.364 22.4263 193.364 32.7867C193.364 43.1469 184.986 51.5731 173.578 51.5731C162.17 51.527 153.792 43.1469 153.792 32.7867ZM183.66 32.7867C183.66 27.1691 179.684 22.5184 173.578 22.5184C167.472 22.4724 163.496 27.1691 163.496 32.7867C163.496 38.3581 167.472 43.0548 173.578 43.0548C179.684 43.0548 183.66 38.3581 183.66 32.7867Z" fill="#8F9DBE"/>
<path d="M258.025 28.647V50.5646H248.464V30.9032C248.464 24.6871 245.435 22.0164 240.891 22.0164C236.63 22.0164 233.601 24.0424 233.601 30.9032V50.5646H224.039V30.9032C224.039 24.6871 220.962 22.0164 216.466 22.0164C212.205 22.0164 208.466 24.0424 208.466 30.9032V50.5646H198.904V14.6491H208.466V19.6221C210.454 15.7542 214.051 13.8203 219.59 13.8203C224.844 13.8203 229.246 16.3068 231.66 20.4969C234.074 16.2147 237.624 13.8203 244.062 13.8203C251.92 13.8664 258.025 19.576 258.025 28.647Z" fill="#8F9DBE"/>
</g>
<defs>
<clipPath id="clip0_1008_12756">
<rect width="260" height="54.2113" fill="white" transform="translate(0 0.1875)"/>
</clipPath>
</defs>
</svg>
