<svg width="418" height="37" viewBox="0 0 418 37" fill="none" xmlns="http://www.w3.org/2000/svg">
<path d="M127.218 10.9514C127.218 5.70097 124.142 1.70703 117.339 1.70703H98.5234V35.3638H108.088V20.5099H114.51L124.074 35.3189H130.002L120.437 20.1958C122.458 19.6676 124.235 18.4602 125.47 16.7767C126.705 15.0932 127.322 13.0362 127.218 10.9514ZM108.088 16.2019V5.70097H116.755C117.474 5.63693 118.199 5.72647 118.882 5.96365C119.564 6.20083 120.188 6.58024 120.712 7.07672C121.237 7.57319 121.65 8.1754 121.923 8.84341C122.197 9.51142 122.326 10.23 122.301 10.9514C122.34 11.6248 122.242 12.2993 122.012 12.9335C121.782 13.5677 121.425 14.1483 120.962 14.6398C120.5 15.1313 119.942 15.5233 119.323 15.7919C118.704 16.0605 118.036 16.2 117.361 16.2019H108.088Z" fill="#8F9DBE"/>
<path d="M55.9297 1.70703L40.2129 35.3638H46.073L51.3269 23.6288H66.1456L71.0852 35.3638H80.3357L66.1232 1.70703H55.9297ZM53.1456 19.2759L59.0282 6.32923L64.574 19.2759H53.1456Z" fill="#8F9DBE"/>
<path d="M20.4323 1.70703H1.30273V35.3638H10.8675V20.5099H21.3754C23.7837 20.3707 26.0406 19.29 27.6581 17.5014C29.2756 15.7128 30.1239 13.36 30.0196 10.9514C30.0196 5.70097 26.9436 1.70703 20.4323 1.70703ZM20.2078 16.2019H10.8675V5.70097H19.5118C20.2323 5.63723 20.9582 5.72681 21.6415 5.96381C22.3249 6.20081 22.9503 6.57984 23.4764 7.07593C24.0025 7.57202 24.4174 8.1739 24.6938 8.84191C24.9703 9.50992 25.1019 10.2289 25.08 10.9514C25.1195 11.6192 25.0233 12.2881 24.7973 12.9179C24.5713 13.5476 24.2202 14.1251 23.765 14.6156C23.3098 15.1061 22.76 15.4995 22.1487 15.7721C21.5374 16.0448 20.8772 16.1909 20.2078 16.2019Z" fill="#8F9DBE"/>
<path d="M322.555 21.744C322.555 25.7604 321.32 30.7192 314.854 30.7192C308.388 30.7192 307.445 25.4911 307.445 21.744V1.70703H298.172V15.8877C298.172 25.4463 298.801 35.9247 314.854 35.9247C324.711 35.9247 328.124 29.7543 328.124 21.1158V1.70703H322.555V21.744Z" fill="#8F9DBE"/>
<path d="M345.098 6.0151H354.034V35.3189H363.599V6.0151H372.557V1.70703H345.098V6.0151Z" fill="#8F9DBE"/>
<path d="M159.414 1.70703L143.697 35.3638H149.557L154.789 23.6288H169.608L174.547 35.3638H184.426L169.81 1.70703H159.414ZM156.54 19.2759L162.4 6.32923L167.946 19.2759H156.54Z" fill="#8F9DBE"/>
<path d="M416.676 6.0151V1.70703H389.531V35.3189H416.676V30.9884H399.096V20.1958H414.207V15.8877H399.096V6.0151H416.676Z" fill="#8F9DBE"/>
<path d="M272.261 15.8877H256.522V1.70703H246.957V35.3189H256.522V20.1958H272.261V35.3189H277.807V1.70703H272.261V15.8877Z" fill="#8F9DBE"/>
<path d="M217.32 31.6158C212.694 31.6158 208.069 26.6795 208.069 18.3551C208.069 10.0306 212.088 5.09432 217.32 5.09432C218.952 4.97807 220.588 5.25343 222.091 5.89746C223.595 6.54148 224.923 7.53548 225.964 8.79656L228.434 5.38601C227.025 3.85941 225.302 2.65578 223.384 1.85789C221.465 1.05999 219.396 0.686745 217.32 0.763815C204.679 0.763815 197.27 9.08826 197.27 18.3551C197.27 29.1477 205.599 36.3054 217.32 36.3054C219.481 36.2467 221.607 35.7512 223.572 34.8488C225.536 33.9464 227.297 32.6558 228.748 31.0549L225.964 28.295C223.588 30.4249 220.511 31.6069 217.32 31.6158Z" fill="#8F9DBE"/>
</svg>
