<svg width="351" height="85" viewBox="0 0 351 85" fill="none" xmlns="http://www.w3.org/2000/svg">
<path d="M48.4879 57.2102C44.7785 58.9953 40.5843 59.5318 36.5403 58.7386C32.4962 57.9454 28.8226 55.8657 26.0755 52.8142C23.3284 49.7627 21.6574 45.9057 21.3155 41.827C20.9736 37.7484 21.9795 33.6702 24.1807 30.2098L19.128 24.584C17.0193 27.3718 15.4973 30.5524 14.6527 33.9365C15.6679 34.3278 16.5324 35.028 17.1224 35.9367C17.7125 36.8455 17.9979 37.9163 17.9379 38.9959C17.8778 40.0755 17.4753 41.1086 16.788 41.9473C16.1007 42.786 15.1638 43.3873 14.1113 43.6652C14.601 47.2331 15.8299 50.6615 17.7204 53.7344C18.7056 53.3246 19.7946 53.2283 20.8372 53.459C21.8799 53.6896 22.8247 54.2358 23.5415 55.0221C24.2582 55.8085 24.7116 56.7963 24.839 57.8492C24.9664 58.9022 24.7616 59.9685 24.2529 60.9011C27.122 63.0975 30.4232 64.6723 33.9433 65.5236C34.3391 64.516 35.0458 63.6585 35.9624 63.074C36.8789 62.4896 37.9582 62.208 39.0457 62.2696C40.1332 62.3313 41.1732 62.733 42.0168 63.4172C42.8604 64.1015 43.4642 65.0332 43.742 66.079C47.2191 65.6178 50.5687 64.4726 53.5948 62.7106L48.4879 57.2102Z" fill="#8F9DBE" fill-opacity="0.1"/>
<path d="M27.3574 23.0781L28.8732 24.8697C33.0006 22.0246 38.0461 20.8048 43.0289 21.4476C48.0117 22.0903 52.5757 24.5497 55.8338 28.3475C59.092 32.1454 60.8114 37.0104 60.6578 41.9968C60.5043 46.9833 58.4888 51.7349 55.0031 55.3281L56.5189 57.1197C60.6146 53.1574 63.0417 47.7984 63.3091 42.1269C63.5765 36.4553 61.6644 30.8946 57.9594 26.5697C54.2545 22.2447 49.0333 19.4783 43.3522 18.8301C37.671 18.1819 31.9539 19.7003 27.3574 23.0781Z" fill="#8F9DBE"/>
<path d="M42.4609 0.00195312V10.967C50.5142 11.5063 58.0603 15.063 63.5724 20.9173C69.0844 26.7717 72.1506 34.4864 72.1506 42.5003C72.1506 50.5142 69.0844 58.2289 63.5724 64.0832C58.0603 69.9375 50.5142 73.4942 42.4609 74.0336V84.9986C53.4409 84.4502 63.7887 79.7333 71.3647 71.8235C78.9407 63.9136 83.1654 53.4157 83.1654 42.5003C83.1654 31.5849 78.9407 21.087 71.3647 13.1771C63.7887 5.26723 53.4409 0.550413 42.4609 0.00195312Z" fill="#8F9DBE"/>
<path d="M37.0291 77.3305C28.2744 76.5411 20.1335 72.5302 14.2053 66.0855C8.27709 59.6409 4.99018 51.2284 4.99018 42.5005C4.99018 33.7725 8.27709 25.36 14.2053 18.9154C20.1335 12.4708 28.2744 8.45985 37.0291 7.67047V2.88672C26.9956 3.68005 17.6316 8.19754 10.8027 15.5391C3.97388 22.8806 0.181641 32.5071 0.181641 42.5005C0.181641 52.4938 3.97388 62.1204 10.8027 69.4619C17.6316 76.8034 26.9956 81.3209 37.0291 82.1142V77.3305Z" fill="#8F9DBE" fill-opacity="0.25"/>
<path d="M110.709 51.6193C109.669 51.632 108.636 51.456 107.659 51.0997C106.73 50.7689 105.864 50.2843 105.097 49.6664C104.438 49.126 103.892 48.4625 103.491 47.7135C103.078 46.9601 102.861 46.1165 102.859 45.2589H107.1C107.114 45.4809 107.196 45.6934 107.335 45.8681C107.53 46.1221 107.768 46.3404 108.038 46.5131C108.368 46.7487 108.734 46.9302 109.121 47.0506C109.587 47.2012 110.075 47.2738 110.565 47.2656C111.257 47.2879 111.949 47.1847 112.604 46.961C113.019 46.8166 113.405 46.598 113.741 46.316C113.997 46.0351 114.193 45.7061 114.318 45.3485C114.337 45.1219 114.337 44.8942 114.318 44.6676C114.29 44.4318 114.197 44.2083 114.048 44.0226C113.67 43.6408 113.186 43.379 112.658 43.2701C111.868 43.0749 111.054 42.9845 110.24 43.0014C109.573 43.0052 108.908 42.9392 108.255 42.8043C107.727 42.6858 107.212 42.5116 106.721 42.2847C106.31 42.1119 105.922 41.8892 105.566 41.6218C105.263 41.4081 104.99 41.155 104.754 40.8693C104.341 40.4463 104.005 39.9552 103.762 39.4181C103.549 38.9587 103.385 38.4782 103.274 37.9847C103.192 37.6009 103.138 37.2117 103.112 36.8202V36.0856C103.101 35.8707 103.101 35.6554 103.112 35.4406C103.155 35.1048 103.234 34.7745 103.347 34.4551C103.493 34.0551 103.668 33.6659 103.87 33.2906C104.109 32.8489 104.42 32.4494 104.79 32.1081C105.574 31.364 106.505 30.7889 107.523 30.4189C108.542 30.0489 109.627 29.892 110.709 29.9581C111.769 29.8968 112.831 30.0564 113.825 30.4267C114.82 30.797 115.725 31.3697 116.484 32.1081C116.94 32.561 117.323 33.0807 117.621 33.6489C117.86 34.1251 118.054 34.6231 118.198 35.136C118.297 35.5241 118.363 35.9196 118.397 36.3185C118.397 36.641 118.397 36.8381 118.397 36.9276L114.011 36.7843C114.007 36.5182 113.971 36.2535 113.903 35.996C113.819 35.6811 113.658 35.3918 113.434 35.1539C113.168 34.913 112.855 34.7299 112.514 34.6164C111.933 34.4241 111.321 34.3391 110.709 34.3656C110.149 34.3522 109.59 34.4186 109.049 34.5626C108.71 34.6674 108.392 34.8312 108.111 35.0464C107.906 35.2038 107.75 35.4148 107.659 35.6556C107.583 35.8186 107.54 35.9953 107.533 36.1752V36.4081C107.516 36.5988 107.516 36.7907 107.533 36.9814C107.533 37.1247 107.533 37.3039 107.678 37.4831C107.741 37.6707 107.846 37.842 107.984 37.9847C108.62 38.4751 109.421 38.7058 110.222 38.6297C112.472 38.4921 114.701 39.1245 116.538 40.4214C117.276 41.0163 117.861 41.776 118.247 42.6385C118.633 43.501 118.808 44.4419 118.757 45.3843C118.744 46.0746 118.597 46.7559 118.324 47.391C117.996 48.1618 117.51 48.8571 116.899 49.4335C116.17 50.1201 115.311 50.656 114.372 51.0101C113.202 51.4441 111.958 51.6509 110.709 51.6193Z" fill="#8F9DBE"/>
<path d="M133.879 51.4574H129.512V30.3516H139.798C140.559 30.3694 141.314 30.5024 142.035 30.7457C142.864 31.0231 143.626 31.4685 144.273 32.0536C145.028 32.6927 145.642 33.4795 146.077 34.3649C146.561 35.4656 146.795 36.6583 146.763 37.8586C146.835 39.0113 146.663 40.166 146.259 41.2489C145.855 42.3318 145.228 43.319 144.417 44.1474C143.965 44.6094 143.441 44.9965 142.865 45.2941C142.381 45.5408 141.873 45.7388 141.35 45.8853C140.957 46.0103 140.551 46.0884 140.14 46.1182H139.455H134.041L133.879 51.4574ZM133.879 41.8541H139.437C139.71 41.8468 139.983 41.8108 140.249 41.7466C140.604 41.6523 140.927 41.4669 141.187 41.2091C141.529 40.8751 141.793 40.4717 141.963 40.0266C142.221 39.3462 142.338 38.6209 142.306 37.8945C142.326 37.3444 142.234 36.7959 142.035 36.282C141.906 35.9144 141.682 35.587 141.386 35.3324C141.143 35.1236 140.861 34.9652 140.556 34.8666C140.296 34.7955 140.03 34.7535 139.762 34.7411H133.879V41.8541Z" fill="#8F9DBE"/>
<path d="M160.876 34.7424V39.0066H170.404V43.3962H160.876V46.9795H170.765V51.4587H156.473V30.3887H170.765V34.7424H160.876Z" fill="#8F9DBE"/>
<path d="M185.904 34.7424V39.0066H195.522V43.3962H185.994V46.9795H195.901V51.4587H181.609V30.3887H195.901V34.7424H185.904Z" fill="#8F9DBE"/>
<path d="M216.943 31.5878C217.626 31.9041 218.278 32.2819 218.891 32.7166C219.592 33.2066 220.202 33.8127 220.696 34.5082C221.259 35.3322 221.703 36.2309 222.013 37.1778C222.383 38.3791 222.56 39.6307 222.537 40.8866C222.583 42.4021 222.307 43.9102 221.725 45.312C221.235 46.4326 220.523 47.444 219.631 48.2861C218.789 49.0473 217.818 49.6539 216.762 50.0778C215.737 50.4924 214.673 50.8045 213.586 51.0095C212.611 51.2098 211.621 51.3296 210.627 51.3678H208.353H206.188V30.3516H210.338C211.024 30.3516 211.764 30.3516 212.503 30.477C213.263 30.5485 214.017 30.6743 214.759 30.8532C215.509 31.0285 216.24 31.2745 216.943 31.5878ZM210.536 47.032C211.714 46.9751 212.883 46.7888 214.019 46.4766C214.88 46.2545 215.685 45.858 216.383 45.312C216.983 44.841 217.449 44.2237 217.737 43.5203C218.026 42.6911 218.167 41.8178 218.152 40.9403C218.179 39.9523 218.02 38.9679 217.682 38.0378C217.387 37.3243 216.9 36.7047 216.275 36.2461C215.561 35.7443 214.75 35.3965 213.893 35.2249C212.787 35.0038 211.664 34.872 210.536 34.8307V47.032Z" fill="#8F9DBE"/>
<path d="M239.139 51.6201C238.105 51.6342 237.077 51.4581 236.108 51.1005C235.208 50.7844 234.367 50.3244 233.617 49.7388C232.88 49.1961 232.266 48.5065 231.813 47.7142C231.406 46.9595 231.195 46.1158 231.199 45.2596H235.584C235.606 45.4831 235.694 45.6952 235.837 45.8688C236.03 46.1187 236.261 46.3364 236.523 46.5138C236.856 46.7424 237.221 46.9233 237.605 47.0513C238.072 47.2006 238.559 47.2732 239.049 47.2663C239.748 47.29 240.445 47.1868 241.106 46.9617C241.514 46.813 241.893 46.5947 242.225 46.3167C242.493 46.045 242.691 45.7131 242.803 45.3492C242.803 45.1163 242.803 44.8834 242.803 44.6684C242.766 44.4349 242.673 44.2136 242.532 44.0234C242.154 43.6416 241.67 43.3797 241.142 43.2709C240.346 43.0757 239.527 42.9854 238.706 43.0021C238.045 43.0061 237.386 42.94 236.739 42.805C236.205 42.6863 235.685 42.5122 235.187 42.2855C234.778 42.1087 234.391 41.8863 234.032 41.6225C233.737 41.3993 233.465 41.1472 233.22 40.8701C232.818 40.4422 232.489 39.952 232.246 39.4188C232.025 38.9628 231.861 38.4813 231.759 37.9855C231.659 37.6049 231.604 37.2141 231.596 36.8209C231.596 36.4805 231.596 36.2475 231.596 36.0863C231.585 35.8714 231.585 35.6562 231.596 35.4413C231.646 35.1051 231.731 34.7749 231.849 34.4559C231.988 34.053 232.163 33.6633 232.372 33.2913C232.611 32.854 232.915 32.4553 233.275 32.1088C234.065 31.3628 235.001 30.7869 236.026 30.4169C237.051 30.047 238.141 29.891 239.23 29.9588C240.29 29.8998 241.35 30.0604 242.345 30.4306C243.339 30.8007 244.244 31.3722 245.004 32.1088C245.455 32.5621 245.832 33.0819 246.123 33.6496C246.37 34.1225 246.564 34.6212 246.7 35.1367C246.808 35.523 246.874 35.9193 246.899 36.3192C246.911 36.5221 246.911 36.7255 246.899 36.9284L242.514 36.7851C242.51 36.5189 242.473 36.2542 242.406 35.9967C242.314 35.6849 242.154 35.3972 241.936 35.1546C241.649 34.8712 241.305 34.6514 240.926 34.5096C240.344 34.3208 239.733 34.2359 239.121 34.2588C238.561 34.2454 238.002 34.3118 237.461 34.4559C237.117 34.5611 236.793 34.7248 236.505 34.9396C236.312 35.1085 236.159 35.3162 236.054 35.5488C235.99 35.7151 235.953 35.8906 235.945 36.0684V36.2655C235.928 36.4562 235.928 36.6481 235.945 36.8388C235.945 36.9821 236.035 37.1613 236.09 37.3405C236.169 37.5245 236.279 37.6941 236.414 37.8421C237.045 38.3297 237.838 38.5603 238.634 38.4871C240.89 38.3468 243.125 38.9792 244.968 40.2788C245.706 40.8737 246.292 41.6334 246.677 42.4959C247.063 43.3584 247.238 44.2993 247.188 45.2417C247.176 45.9341 247.022 46.6168 246.736 47.2484C246.414 48.0184 245.935 48.7138 245.329 49.2909C244.597 49.9738 243.739 50.5092 242.803 50.8675C241.641 51.3467 240.397 51.602 239.139 51.6201Z" fill="#8F9DBE" fill-opacity="0.25"/>
<path d="M275.752 46.4053C274.356 48.6939 272.116 50.3521 269.509 51.0278C268.616 51.2745 267.692 51.3951 266.766 51.3861C265.351 51.3987 263.95 51.118 262.651 50.5619C261.406 50.024 260.273 49.2582 259.313 48.3044C258.354 47.336 257.583 46.2002 257.039 44.954C256.491 43.6608 256.209 42.272 256.209 40.869C256.209 39.466 256.491 38.0772 257.039 36.784C257.589 35.5728 258.36 34.4733 259.313 33.5411C260.267 32.5802 261.401 31.8133 262.651 31.2836C263.949 30.7219 265.35 30.4351 266.766 30.4415C267.692 30.4414 268.614 30.5619 269.509 30.7998C270.381 31.028 271.219 31.3715 271.999 31.8211C272.774 32.2531 273.484 32.7897 274.11 33.4157C274.74 34.0267 275.292 34.7127 275.752 35.4582L272.522 38.6653C272.291 38.0998 271.981 37.5692 271.602 37.0886C271.228 36.6191 270.791 36.2031 270.303 35.8523C269.792 35.508 269.233 35.2422 268.642 35.064C268.06 34.8751 267.451 34.7784 266.838 34.7773C266.013 34.7733 265.196 34.938 264.438 35.2611C263.697 35.5731 263.023 36.0231 262.453 36.5869C261.894 37.1571 261.448 37.8254 261.135 38.5578C260.794 39.3123 260.622 40.1314 260.63 40.9586C260.621 41.7916 260.794 42.6166 261.135 43.3773C261.448 44.1041 261.895 44.7665 262.453 45.3303C263.027 45.9028 263.711 46.3561 264.464 46.6637C265.217 46.9713 266.024 47.1271 266.838 47.1219C267.451 47.1209 268.06 47.0241 268.642 46.8353C269.23 46.6434 269.789 46.3721 270.303 46.029C270.795 45.6897 271.233 45.279 271.602 44.8107C271.984 44.339 272.294 43.8137 272.522 43.2519L275.752 46.4053Z" fill="#8F9DBE" fill-opacity="0.25"/>
<path d="M298.219 51.458L297.118 48.3584H288.564L287.554 51.458H282.682L290.243 30.4238H295.44L303.001 51.458H298.219ZM290.134 44.0405H295.548L292.823 36.4976L290.134 44.0405Z" fill="#8F9DBE" fill-opacity="0.25"/>
<path d="M312.006 51.4587V30.3887H316.427V47.0153H326.388V51.4587H312.006Z" fill="#8F9DBE" fill-opacity="0.25"/>
<path d="M340.428 34.7424V39.0066H349.956V43.3962H340.428V46.9795H350.335V51.4587H336.043V30.3887H350.335V34.7424H340.428Z" fill="#8F9DBE" fill-opacity="0.25"/>
</svg>
