<svg width="123" height="28" viewBox="0 0 123 28" fill="none" xmlns="http://www.w3.org/2000/svg">
<g clip-path="url(#clip0_2466_12490)">
<path d="M4.6991 0H0V27.5637H17.0471V23.538H4.6991V0Z" fill="#8F9DBE"/>
<path d="M24.8032 12.5469H20.25V27.5612H24.8032V12.5469Z" fill="#8F9DBE"/>
<path d="M38.2081 27.0201L32.4166 8.01562H27.8633L33.9466 27.5645H42.4696L48.5528 8.01562H43.9628L38.2081 27.0201Z" fill="#8F9DBE"/>
<path d="M59.8485 7.58203C53.9468 7.58203 50.1953 11.7896 50.1953 17.7734C50.1953 23.7216 53.8376 28.0012 59.8485 28.0012C64.4374 28.0012 67.7523 25.9701 68.9906 21.7991H64.3606C63.6691 23.685 62.393 24.8114 59.8798 24.8114C57.1116 24.8114 55.1818 22.8889 54.8177 19.1181H69.3147C69.384 18.6374 69.4201 18.1525 69.4228 17.6669C69.4239 11.5712 65.6356 7.58203 59.8485 7.58203ZM54.8533 15.9595C55.3277 12.4426 57.185 10.774 59.8485 10.774C62.6524 10.774 64.5465 12.8407 64.7658 15.9595H54.8533Z" fill="#8F9DBE"/>
<path d="M96.0485 0H90.1479L78.7108 12.6216V0H74.0117V27.5637H78.7108V13.6372L91.3137 27.5637H97.3235L84.1381 13.0562L96.0485 0Z" fill="#8F9DBE"/>
<path d="M103.915 8.01562H99.3613V23.0299H103.915V8.01562Z" fill="#8F9DBE"/>
<path d="M20.2505 8.01562H15.6973V12.5492H20.2505V8.01562Z" fill="#8F9DBE"/>
<path d="M108.467 23.0312H103.914V27.5647H108.467V23.0312Z" fill="#8F9DBE"/>
<path d="M122.073 23.0312H117.52V27.5647H122.073V23.0312Z" fill="#8F9DBE"/>
<path d="M122.072 12.5484V8.0149H117.519V0H112.965V8.0149H108.412V12.5484H112.965V23.0302H117.519V12.5484H122.072Z" fill="#8F9DBE"/>
</g>
<defs>
<clipPath id="clip0_2466_12490">
<rect width="123" height="28" fill="white"/>
</clipPath>
</defs>
</svg>
