<svg width="171" height="80" viewBox="0 0 171 80" fill="none" xmlns="http://www.w3.org/2000/svg">
<g clip-path="url(#clip0_1008_12916)">
<path d="M28.6368 14.7109C21.8597 14.7109 17.4949 16.6636 13.8192 21.2582V16.2042H0.724609V78.4609C0.724609 78.4609 0.954339 78.5758 1.64353 78.6907C2.56245 78.9204 7.38677 79.9542 10.9476 76.9677C14.0489 74.3258 14.7381 71.2245 14.7381 67.7785V58.819C18.5287 62.8393 22.7787 64.5623 28.7516 64.5623C41.6165 64.5623 51.4949 54.1096 51.4949 40.2109C51.4949 25.1636 41.9611 14.7109 28.6368 14.7109ZM26.1097 52.7312C18.8733 52.7312 13.13 46.7582 13.13 39.5217C13.13 32.4001 19.907 26.6569 26.1097 26.6569C33.4611 26.6569 39.0895 32.2853 39.0895 39.6366C39.0895 46.988 33.3462 52.7312 26.1097 52.7312Z" fill="#8F9DBE"/>
<path d="M70.1029 38.7195C70.1029 44.1181 70.6772 50.6654 75.961 57.7871C76.0759 57.9019 76.3056 58.2465 76.3056 58.2465C74.1232 61.9222 71.4813 64.4492 67.9205 64.4492C65.1637 64.4492 62.4069 62.956 60.1096 60.4289C57.6975 57.6722 56.5488 54.1114 56.5488 50.3208V0.699219H69.988L70.1029 38.7195Z" fill="#8F9DBE"/>
<path d="M136.61 62.957H120.299L136.15 39.6395L120.299 16.207H136.61L152.346 39.6395L136.61 62.957Z" fill="#8F9DBE" fill-opacity="0.5"/>
<path d="M156.596 36.9976L170.725 16.207H154.414L148.556 24.8219L156.596 36.9976Z" fill="#8F9DBE"/>
<path d="M148.556 54.4569L151.312 58.2475C153.954 62.3826 157.4 64.4502 161.421 64.4502C165.671 64.3353 168.657 60.6596 169.806 59.2812C169.806 59.2812 167.738 57.4434 165.096 54.3421C161.535 50.2069 156.826 42.6258 156.711 42.2812L148.556 54.4569Z" fill="#8F9DBE"/>
<path d="M108.238 49.515C105.481 52.042 103.643 53.4204 99.8528 53.4204C93.0758 53.4204 89.1704 48.5961 88.5961 43.3123H124.549C124.779 42.6231 124.893 41.7042 124.893 40.2109C124.893 25.6231 114.211 14.7109 100.197 14.7109C86.8731 14.7109 75.9609 25.8528 75.9609 39.7515C75.9609 53.5353 86.8731 64.4474 100.542 64.4474C110.076 64.4474 118.346 59.0488 122.826 49.515H108.238ZM100.312 25.738C106.285 25.738 110.765 29.6434 111.799 34.8123H89.0555C90.2042 29.4136 94.4542 25.738 100.312 25.738Z" fill="#8F9DBE"/>
</g>
<defs>
<clipPath id="clip0_1008_12916">
<rect width="170" height="78.3378" fill="white" transform="translate(0.724609 0.703125)"/>
</clipPath>
</defs>
</svg>
